<svg width="611" height="244" viewBox="0 0 611 244" fill="none" xmlns="http://www.w3.org/2000/svg">
<path d="M105.98 97.5023H113.471C121.325 97.5023 128.32 91.7327 128.32 81.8965C128.32 72.702 121.325 66.3542 113.471 66.3542H95.2686V114.824H105.98V97.5023ZM111.689 74.7671C114.827 74.7671 118.111 77.474 118.111 81.8965C118.111 86.5287 114.827 89.0958 111.689 89.0958H105.98V74.7671H111.689Z" fill="#FF5757"/>
<path d="M185.432 90.5191C185.432 98.0043 178.648 104.848 171.156 104.848C163.659 104.848 156.874 98.0043 156.874 90.5191C156.874 83.0339 163.659 76.2667 171.156 76.2667C178.648 76.2667 185.432 83.0339 185.432 90.5191ZM196.137 90.589C196.137 77.188 184.573 65.6425 171.156 65.6425C157.734 65.6425 146.169 77.188 146.169 90.589C146.169 103.99 157.734 115.535 171.156 115.535C184.573 115.535 196.137 103.99 196.137 90.589Z" fill="#FF5757"/>
<path d="M236.039 107.269C230.756 107.269 226.186 104.632 225.9 98.8557H215.055C215.125 110.687 224.901 115.961 235.612 115.961C245.535 115.961 255.744 111.761 255.744 100.355C255.744 81.8965 227.689 88.0981 227.689 79.4692C227.689 75.8346 231.902 74.4113 234.9 74.4113C240.252 74.4113 243.18 76.0506 243.753 81.1086H254.102C253.745 70.065 244.752 65.6425 234.753 65.6425C225.9 65.6425 216.62 70.351 216.62 80.327C216.62 98.214 244.682 92.1585 244.682 101.569C244.682 105.915 239.399 107.269 236.039 107.269Z" fill="#FF5757"/>
<path d="M295.365 101.995V96.079H273.229V101.995H295.365Z" fill="#FF5757"/>
<path d="M375.532 66.3542H363.751L358.042 99.7835L348.546 66.3542H338.051L328.555 99.7835L322.846 66.3542H311.065L320.491 114.824H333.195L343.334 80.8226L353.403 114.824H366.106L375.532 66.3542Z" fill="#FF5757"/>
<path d="M405.153 114.824V66.3542H394.442V114.824H405.153Z" fill="#FF5757"/>
<path d="M438.56 104.988V76.2667H441.774C450.055 76.2667 455.624 82.5383 455.624 90.589C455.624 98.6461 449.985 104.988 441.774 104.988H438.56ZM427.995 66.3542V114.824H442.417C456.196 114.824 466.545 104.276 466.545 90.589C466.545 76.9085 456.126 66.3542 442.417 66.3542H427.995Z" fill="#FF5757"/>
<path d="M515.733 105.127H498.313V95.3673H515.013V85.6709H498.313V76.0506H515.733V66.3542H487.601V114.824H515.733V105.127Z" fill="#FF5757"/>
<path d="M142.948 172.612V161.683H149.211C150.84 161.683 152.145 162.197 153.138 163.189C154.092 164.218 154.608 165.482 154.608 167.071C154.608 168.691 154.092 170 153.061 171.068C152.03 172.097 150.757 172.612 149.211 172.612H142.948ZM157.383 167.147C157.383 164.771 156.511 162.833 154.843 161.289C153.176 159.783 151.196 159.033 148.816 159.033H140.167V185.956H142.948V175.306H148.816C151.196 175.306 153.214 174.55 154.843 173.05C156.511 171.462 157.383 169.524 157.383 167.147Z" fill="#FF5757"/>
<path d="M183.357 177.168C183.357 178.909 182.72 180.37 181.492 181.603C180.219 182.867 178.755 183.458 177.011 183.458C175.261 183.458 173.759 182.867 172.524 181.603C171.258 180.37 170.666 178.909 170.666 177.168C170.666 175.42 171.258 173.959 172.524 172.688C173.759 171.462 175.261 170.833 177.011 170.833C178.755 170.833 180.219 171.462 181.492 172.688C182.72 173.959 183.357 175.42 183.357 177.168ZM186.132 177.168C186.132 174.67 185.222 172.535 183.433 170.75C181.651 168.971 179.506 168.056 177.011 168.056C174.472 168.056 172.327 168.971 170.545 170.75C168.763 172.535 167.884 174.67 167.884 177.168C167.884 179.697 168.763 181.838 170.545 183.579C172.327 185.365 174.51 186.235 177.011 186.235C179.468 186.235 181.651 185.365 183.433 183.579C185.222 181.838 186.132 179.697 186.132 177.168Z" fill="#FF5757"/>
<path d="M201.635 162.515C201.278 162.197 200.839 162 200.362 162C199.891 162 199.452 162.197 199.133 162.515C198.777 162.871 198.618 163.309 198.618 163.779C198.618 164.256 198.777 164.694 199.133 165.012C199.452 165.368 199.891 165.527 200.362 165.527C200.839 165.527 201.278 165.368 201.635 165.012C201.953 164.694 202.15 164.256 202.15 163.779C202.15 163.309 201.953 162.871 201.635 162.515ZM201.794 185.956V168.532H199.019V185.956H201.794Z" fill="#FF5757"/>
<path d="M227.89 185.956H230.665V175.064C230.665 173.05 230.111 171.424 229.08 170.197C228.52 169.562 227.89 169.085 227.132 168.729C226.343 168.374 225.35 168.177 224.122 168.177C222.849 168.177 221.78 168.532 220.831 169.168C219.915 169.759 219.164 170.553 218.61 171.544V168.532H215.829V185.956H218.61V178.667C218.61 176.45 219.005 174.709 219.839 173.406C220.31 172.688 220.908 172.097 221.659 171.621C222.378 171.188 223.365 170.947 224.555 170.947C225.745 170.947 226.579 171.385 227.094 172.173C227.61 172.968 227.89 173.959 227.89 175.064V185.956Z" fill="#FF5757"/>
<path d="M241.767 171.106H246.127V185.956H248.902V171.106H253.223V168.532H248.902V161.765H246.127V168.532H241.767V171.106Z" fill="#FF5757"/>
<path d="M297.844 177.168C297.844 178.909 297.207 180.37 295.979 181.603C294.706 182.867 293.242 183.458 291.498 183.458C289.748 183.458 288.246 182.867 287.011 181.603C285.744 180.37 285.153 178.909 285.153 177.168C285.153 175.42 285.744 173.959 287.011 172.688C288.246 171.462 289.748 170.833 291.498 170.833C293.242 170.833 294.706 171.462 295.979 172.688C297.207 173.959 297.844 175.42 297.844 177.168ZM300.618 177.168C300.618 174.67 299.708 172.535 297.92 170.75C296.138 168.971 293.993 168.056 291.498 168.056C288.959 168.056 286.814 168.971 285.032 170.75C283.25 172.535 282.371 174.67 282.371 177.168C282.371 179.697 283.25 181.838 285.032 183.579C286.814 185.365 288.997 186.235 291.498 186.235C293.955 186.235 296.138 185.365 297.92 183.579C299.708 181.838 300.618 179.697 300.618 177.168Z" fill="#FF5757"/>
<path d="M322.664 158.836V156.256H320.679C318.699 156.256 317.312 156.771 316.478 157.724C315.644 158.677 315.25 160.062 315.25 161.803V168.532H311.717V171.106H315.25V185.955H318.025V171.106H322.664V168.532H318.025V161.009C318.025 160.418 318.146 159.903 318.457 159.465C318.737 159.071 319.336 158.836 320.284 158.836H322.664Z" fill="#FF5757"/>
<path d="M360.855 173.285C364.342 174.118 366.723 175.026 367.989 176.056C368.868 176.767 369.3 177.682 369.3 178.788C369.3 179.9 369.065 180.809 368.588 181.444C367.397 183.102 365.259 183.935 362.242 183.935C358.035 183.935 355.661 182.512 355.146 179.659H351.893C352.842 184.214 356.291 186.47 362.242 186.47C364.896 186.47 367.117 185.917 368.906 184.729C371.044 183.344 372.158 181.285 372.158 178.591C372.158 176.373 371.286 174.67 369.542 173.482C368.308 172.612 366.328 171.817 363.591 171.106C360.816 170.394 359.028 169.803 358.194 169.365C356.374 168.456 355.457 167.185 355.502 165.527C355.502 164.656 355.661 163.9 356.056 163.347C357.087 161.803 358.913 161.009 361.529 161.009C365.214 161.009 367.321 162.197 367.875 164.497H370.885C369.899 160.615 366.761 158.633 361.529 158.633C359.149 158.633 357.049 159.268 355.298 160.532C353.516 161.803 352.606 163.665 352.606 166.2C352.606 169.644 355.381 172.021 360.855 173.285Z" fill="#FF5757"/>
<path d="M397.969 177.244C397.969 178.947 397.377 180.453 396.187 181.679C394.996 182.944 393.526 183.579 391.82 183.579C390.077 183.579 388.613 182.944 387.423 181.679C386.232 180.453 385.679 178.947 385.679 177.244C385.679 175.579 386.232 174.08 387.423 172.809C388.613 171.544 390.077 170.909 391.82 170.909C393.526 170.909 394.996 171.544 396.187 172.809C397.377 174.08 397.969 175.579 397.969 177.244ZM400.75 185.956V168.532H397.969V171.544C397.81 171.303 397.612 171.106 397.453 170.909C395.792 169.085 393.768 168.138 391.388 168.138C388.969 168.138 386.945 169.085 385.278 170.909C383.693 172.732 382.897 174.829 382.897 177.244C382.897 179.697 383.693 181.8 385.278 183.579C386.945 185.441 388.969 186.349 391.388 186.349C393.768 186.349 395.792 185.441 397.453 183.579C397.612 183.42 397.81 183.223 397.969 182.988V185.956H400.75Z" fill="#FF5757"/>
<path d="M417.403 185.955V156.256H414.621V185.955H417.403Z" fill="#FF5757"/>
<path d="M448.335 176.85C448.335 174.473 447.38 172.415 445.56 170.629C443.772 168.933 441.633 168.056 439.215 168.056C436.675 168.056 434.53 168.971 432.748 170.75C430.966 172.535 430.088 174.67 430.088 177.168C430.088 179.697 430.966 181.838 432.748 183.579C433.582 184.411 434.53 185.047 435.644 185.517C436.751 185.994 438.063 186.235 439.609 186.235C441.156 186.235 442.664 185.758 444.173 184.805C445.675 183.859 446.788 182.512 447.539 180.847H444.37C443.733 181.679 442.982 182.315 442.066 182.785C441.156 183.261 440.201 183.458 439.215 183.458C437.706 183.458 436.357 182.988 435.167 181.997C433.977 181.044 433.226 179.817 432.984 178.311H448.335V176.85ZM445.401 175.935H433.028C433.181 175.223 433.461 174.55 433.856 173.921C435.129 171.862 436.911 170.833 439.215 170.833C440.678 170.833 441.99 171.303 443.142 172.256C444.325 173.247 445.045 174.473 445.401 175.935Z" fill="#FF5757"/>
<path d="M463.322 183.503C462.647 183.026 462.131 182.232 461.851 181.088H458.917C459.516 184.691 461.813 186.47 465.861 186.47C466.809 186.47 467.681 186.394 468.515 186.152C469.349 185.917 470.062 185.6 470.736 185.161C472.086 184.253 472.76 182.867 472.76 181.006C472.76 179.106 471.888 177.759 470.062 176.888C469.311 176.532 468.477 176.253 467.567 176.056C466.695 175.859 465.861 175.624 465.104 175.382C464.315 175.147 463.678 174.829 463.163 174.474C462.647 174.118 462.367 173.565 462.367 172.771C462.367 171.976 462.685 171.385 463.322 171.03C463.958 170.629 464.709 170.432 465.543 170.432C466.415 170.432 467.166 170.629 467.764 170.947C468.356 171.265 468.833 171.9 469.113 172.847H472.086C471.729 171.106 470.978 169.879 469.864 169.206C468.712 168.494 467.325 168.138 465.619 168.138C463.958 168.138 462.488 168.615 461.26 169.486C460.069 170.394 459.433 171.703 459.433 173.444C459.433 174.277 459.675 175.026 460.108 175.662C460.585 176.335 461.26 176.85 462.131 177.244C462.927 177.6 463.754 177.879 464.633 178.114C465.505 178.311 466.338 178.553 467.128 178.788C468.916 179.385 469.826 180.256 469.826 181.361C469.826 183.261 468.553 184.176 466.02 184.176C464.945 184.176 464.034 183.973 463.322 183.503Z" fill="#FF5757"/>
</svg>
