<svg width="850" height="340" viewBox="0 0 850 340" fill="none" xmlns="http://www.w3.org/2000/svg">
<path d="M147.436 135.864H157.857C168.783 135.864 178.514 127.824 178.514 114.118C178.514 101.306 168.783 92.4607 157.857 92.4607H132.534V160H147.436V135.864ZM155.378 104.184C159.743 104.184 164.312 107.955 164.312 114.118C164.312 120.573 159.743 124.15 155.378 124.15H147.436V104.184H155.378Z" fill="#FF5757"/>
<path d="M257.966 126.133C257.966 136.563 248.528 146.099 238.106 146.099C227.676 146.099 218.238 136.563 218.238 126.133C218.238 115.703 227.676 106.273 238.106 106.273C248.528 106.273 257.966 115.703 257.966 126.133ZM272.859 126.231C272.859 107.557 256.771 91.4691 238.106 91.4691C219.433 91.4691 203.345 107.557 203.345 126.231C203.345 144.904 219.433 160.992 238.106 160.992C256.771 160.992 272.859 144.904 272.859 126.231Z" fill="#FF5757"/>
<path d="M328.368 149.473C321.019 149.473 314.662 145.798 314.264 137.75H299.176C299.274 154.236 312.874 161.585 327.775 161.585C341.579 161.585 355.781 155.733 355.781 139.839C355.781 114.118 316.752 122.76 316.752 110.736C316.752 105.671 322.613 103.688 326.783 103.688C334.23 103.688 338.303 105.972 339.1 113.02H353.496C353.001 97.6316 340.49 91.4691 326.58 91.4691C314.264 91.4691 301.354 98.03 301.354 111.931C301.354 136.856 340.392 128.417 340.392 141.531C340.392 147.587 333.043 149.473 328.368 149.473Z" fill="#FF5757"/>
<path d="M410.9 142.124V133.88H380.105V142.124H410.9Z" fill="#FF5757"/>
<path d="M522.426 92.4607H506.037L498.095 139.042L484.885 92.4607H470.284L457.074 139.042L449.131 92.4607H432.742L445.855 160H463.528L477.633 112.622L491.64 160H509.313L522.426 92.4607Z" fill="#FF5757"/>
<path d="M563.634 160V92.4607H548.732V160H563.634Z" fill="#FF5757"/>
<path d="M610.108 146.294V106.273H614.58C626.099 106.273 633.846 115.012 633.846 126.23C633.846 137.458 626.001 146.294 614.58 146.294H610.108ZM595.41 92.4607V160H615.474C634.643 160 649.04 145.302 649.04 126.23C649.04 107.167 634.546 92.4607 615.474 92.4607H595.41Z" fill="#FF5757"/>
<path d="M717.468 146.489H693.234V132.889H716.467V119.377H693.234V105.972H717.468V92.4607H678.332V160H717.468V146.489Z" fill="#FF5757"/>
<path d="M198.864 240.525V225.295H207.576C209.843 225.295 211.658 226.013 213.039 227.394C214.367 228.828 215.084 230.59 215.084 232.804C215.084 235.062 214.367 236.886 212.933 238.373C211.499 239.807 209.728 240.525 207.576 240.525H198.864ZM218.945 232.91C218.945 229.599 217.732 226.898 215.412 224.747C213.092 222.648 210.339 221.603 207.027 221.603H194.994V259.118H198.864V244.279H207.027C210.339 244.279 213.145 243.225 215.412 241.136C217.732 238.922 218.945 236.222 218.945 232.91Z" fill="#FF5757"/>
<path d="M255.079 246.873C255.079 249.299 254.194 251.336 252.485 253.053C250.714 254.815 248.677 255.639 246.251 255.639C243.816 255.639 241.727 254.815 240.009 253.053C238.247 251.336 237.424 249.299 237.424 246.873C237.424 244.438 238.247 242.402 240.009 240.631C241.727 238.922 243.816 238.045 246.251 238.045C248.677 238.045 250.714 238.922 252.485 240.631C254.194 242.402 255.079 244.438 255.079 246.873ZM258.939 246.873C258.939 243.393 257.673 240.418 255.185 237.93C252.706 235.451 249.722 234.176 246.251 234.176C242.719 234.176 239.735 235.451 237.255 237.93C234.776 240.418 233.554 243.393 233.554 246.873C233.554 250.397 234.776 253.381 237.255 255.807C239.735 258.295 242.772 259.508 246.251 259.508C249.669 259.508 252.706 258.295 255.185 255.807C257.673 253.381 258.939 250.397 258.939 246.873Z" fill="#FF5757"/>
<path d="M280.507 226.455C280.011 226.013 279.4 225.738 278.736 225.738C278.081 225.738 277.47 226.013 277.027 226.455C276.531 226.951 276.31 227.562 276.31 228.217C276.31 228.881 276.531 229.492 277.027 229.935C277.47 230.431 278.081 230.652 278.736 230.652C279.4 230.652 280.011 230.431 280.507 229.935C280.949 229.492 281.224 228.881 281.224 228.217C281.224 227.562 280.949 226.951 280.507 226.455ZM280.728 259.118V234.84H276.868V259.118H280.728Z" fill="#FF5757"/>
<path d="M317.031 259.118H320.892V243.942C320.892 241.136 320.122 238.869 318.687 237.16C317.908 236.275 317.031 235.611 315.978 235.115C314.88 234.619 313.499 234.344 311.79 234.344C310.019 234.344 308.531 234.84 307.212 235.726C305.937 236.549 304.892 237.656 304.122 239.037V234.84H300.253V259.118H304.122V248.963C304.122 245.872 304.671 243.446 305.831 241.631C306.486 240.631 307.318 239.807 308.363 239.143C309.364 238.541 310.736 238.205 312.392 238.205C314.048 238.205 315.208 238.816 315.925 239.914C316.642 241.02 317.031 242.402 317.031 243.942V259.118Z" fill="#FF5757"/>
<path d="M336.337 238.426H342.402V259.118H346.263V238.426H352.275V234.84H346.263V225.411H342.402V234.84H336.337V238.426Z" fill="#FF5757"/>
<path d="M414.349 246.873C414.349 249.299 413.463 251.336 411.754 253.053C409.983 254.815 407.947 255.639 405.521 255.639C403.086 255.639 400.996 254.815 399.279 253.053C397.517 251.336 396.693 249.299 396.693 246.873C396.693 244.438 397.517 242.402 399.279 240.631C400.996 238.922 403.086 238.045 405.521 238.045C407.947 238.045 409.983 238.922 411.754 240.631C413.463 242.402 414.349 244.438 414.349 246.873ZM418.209 246.873C418.209 243.393 416.943 240.418 414.455 237.93C411.976 235.451 408.992 234.176 405.521 234.176C401.988 234.176 399.004 235.451 396.525 237.93C394.046 240.418 392.824 243.393 392.824 246.873C392.824 250.397 394.046 253.381 396.525 255.807C399.004 258.295 402.041 259.508 405.521 259.508C408.939 259.508 411.976 258.295 414.455 255.807C416.943 253.381 418.209 250.397 418.209 246.873Z" fill="#FF5757"/>
<path d="M448.878 221.329V217.734H446.116C443.362 217.734 441.432 218.451 440.272 219.779C439.112 221.107 438.563 223.038 438.563 225.464V234.84H433.649V238.426H438.563V259.118H442.424V238.426H448.878V234.84H442.424V224.357C442.424 223.533 442.592 222.816 443.026 222.205C443.415 221.656 444.248 221.329 445.567 221.329H448.878Z" fill="#FF5757"/>
<path d="M502.007 241.463C506.859 242.623 510.171 243.889 511.933 245.324C513.155 246.315 513.757 247.59 513.757 249.131C513.757 250.68 513.429 251.946 512.765 252.832C511.109 255.143 508.134 256.303 503.937 256.303C498.085 256.303 494.782 254.319 494.065 250.344H489.541C490.86 256.692 495.659 259.836 503.937 259.836C507.63 259.836 510.72 259.065 513.208 257.409C516.183 255.479 517.732 252.611 517.732 248.856C517.732 245.766 516.519 243.393 514.093 241.738C512.375 240.525 509.622 239.418 505.815 238.426C501.954 237.434 499.466 236.611 498.306 236C495.774 234.734 494.499 232.963 494.561 230.652C494.561 229.439 494.782 228.386 495.331 227.615C496.766 225.464 499.307 224.357 502.946 224.357C508.072 224.357 511.003 226.013 511.773 229.218H515.961C514.589 223.808 510.224 221.045 502.946 221.045C499.634 221.045 496.712 221.931 494.278 223.693C491.798 225.464 490.532 228.058 490.532 231.591C490.532 236.39 494.393 239.701 502.007 241.463Z" fill="#FF5757"/>
<path d="M553.639 246.979C553.639 249.352 552.816 251.451 551.16 253.159C549.504 254.921 547.459 255.807 545.086 255.807C542.66 255.807 540.623 254.921 538.968 253.159C537.312 251.451 536.542 249.352 536.542 246.979C536.542 244.659 537.312 242.57 538.968 240.799C540.623 239.037 542.66 238.152 545.086 238.152C547.459 238.152 549.504 239.037 551.16 240.799C552.816 242.57 553.639 244.659 553.639 246.979ZM557.508 259.118V234.84H553.639V239.037C553.418 238.701 553.143 238.426 552.922 238.152C550.611 235.611 547.795 234.291 544.484 234.291C541.119 234.291 538.304 235.611 535.984 238.152C533.779 240.693 532.672 243.615 532.672 246.979C532.672 250.397 533.779 253.328 535.984 255.807C538.304 258.401 541.119 259.667 544.484 259.667C547.795 259.667 550.611 258.401 552.922 255.807C553.143 255.586 553.418 255.311 553.639 254.983V259.118H557.508Z" fill="#FF5757"/>
<path d="M580.675 259.118V217.734H576.805V259.118H580.675Z" fill="#FF5757"/>
<path d="M623.707 246.43C623.707 243.119 622.378 240.25 619.846 237.762C617.358 235.398 614.383 234.176 611.019 234.176C607.486 234.176 604.502 235.451 602.023 237.93C599.544 240.418 598.322 243.393 598.322 246.873C598.322 250.397 599.544 253.381 602.023 255.807C603.183 256.967 604.502 257.852 606.051 258.507C607.592 259.171 609.416 259.508 611.568 259.508C613.719 259.508 615.818 258.844 617.916 257.516C620.006 256.196 621.555 254.319 622.6 252H618.19C617.305 253.159 616.26 254.045 614.985 254.7C613.719 255.364 612.391 255.639 611.019 255.639C608.92 255.639 607.043 254.983 605.387 253.602C603.732 252.274 602.687 250.565 602.35 248.467H623.707V246.43ZM619.625 245.155H602.412C602.625 244.164 603.014 243.225 603.563 242.349C605.334 239.48 607.813 238.045 611.019 238.045C613.055 238.045 614.879 238.701 616.482 240.029C618.128 241.41 619.129 243.119 619.625 245.155Z" fill="#FF5757"/>
<path d="M644.555 255.701C643.617 255.037 642.9 253.93 642.51 252.336H638.428C639.261 257.356 642.457 259.836 648.088 259.836C649.408 259.836 650.621 259.729 651.78 259.393C652.94 259.065 653.932 258.623 654.871 258.012C656.748 256.745 657.686 254.815 657.686 252.221C657.686 249.574 656.473 247.696 653.932 246.483C652.887 245.988 651.727 245.598 650.461 245.324C649.248 245.049 648.088 244.721 647.035 244.385C645.937 244.057 645.051 243.615 644.334 243.119C643.617 242.623 643.227 241.853 643.227 240.746C643.227 239.639 643.67 238.816 644.555 238.32C645.441 237.762 646.486 237.488 647.646 237.488C648.859 237.488 649.903 237.762 650.736 238.205C651.559 238.648 652.223 239.533 652.613 240.852H656.748C656.252 238.426 655.207 236.717 653.658 235.779C652.055 234.787 650.125 234.291 647.752 234.291C645.441 234.291 643.396 234.955 641.687 236.168C640.031 237.434 639.146 239.258 639.146 241.684C639.146 242.844 639.482 243.889 640.084 244.775C640.748 245.713 641.687 246.43 642.9 246.979C644.007 247.475 645.158 247.865 646.379 248.192C647.592 248.467 648.752 248.803 649.85 249.131C652.338 249.963 653.604 251.176 653.604 252.717C653.604 255.364 651.834 256.639 648.31 256.639C646.813 256.639 645.547 256.356 644.555 255.701Z" fill="#FF5757"/>
</svg>
